<?xml version="1.0" encoding="UTF-8" standalone="no"?>
<svg
   xmlns:dc="http://purl.org/dc/elements/1.1/"
   xmlns:cc="http://creativecommons.org/ns#"
   xmlns:rdf="http://www.w3.org/1999/02/22-rdf-syntax-ns#"
   xmlns:svg="http://www.w3.org/2000/svg"
   xmlns="http://www.w3.org/2000/svg"
   xmlns:sodipodi="http://sodipodi.sourceforge.net/DTD/sodipodi-0.dtd"
   xmlns:inkscape="http://www.inkscape.org/namespaces/inkscape"
   viewBox="0 0 610.05298 187.041"
   version="1.1"
   id="svg268"
   sodipodi:docname="visa.svg"
   width="610.05298"
   height="187.041"
   style="clip-rule:evenodd;fill-rule:evenodd;image-rendering:optimizeQuality;shape-rendering:geometricPrecision;text-rendering:geometricPrecision"
   inkscape:version="0.92.5 (2060ec1f9f, 2020-04-08)">
  <metadata
     id="metadata272">
    <rdf:RDF>
      <cc:Work
         rdf:about="">
        <dc:format>image/svg+xml</dc:format>
        <dc:type
           rdf:resource="http://purl.org/dc/dcmitype/StillImage" />
        <dc:title></dc:title>
      </cc:Work>
    </rdf:RDF>
  </metadata>
  <sodipodi:namedview
     pagecolor="#ffffff"
     bordercolor="#666666"
     borderopacity="1"
     objecttolerance="10"
     gridtolerance="10"
     guidetolerance="10"
     inkscape:pageopacity="0"
     inkscape:pageshadow="2"
     inkscape:window-width="1528"
     inkscape:window-height="836"
     id="namedview270"
     showgrid="false"
     inkscape:zoom="0.98200098"
     inkscape:cx="501.9995"
     inkscape:cy="298.5095"
     inkscape:window-x="72"
     inkscape:window-y="27"
     inkscape:window-maximized="1"
     inkscape:current-layer="_364834240" />
  <defs
     id="defs258">
    <style
       id="style256">.fil1{fill:#191e70}</style>
  </defs>
  <g
     id="Layer_x0020_1"
     transform="matrix(0.003,0,0,0.003,1.994,-409.979)">
    <g
       id="_364834240">
      <g
         id="g285"
         transform="translate(-65656.67,68329.667)">
        <path
           style="fill:#191e70"
           inkscape:connector-curvature="0"
           id="path262"
           d="m 136629,129780 10294,-60402 h 16463 l -10300,60402 z m 76169,-58913 c -3262,-1226 -8373,-2537 -14756,-2537 -16267,-2 -27728,8192 -27824,19933 -92,8676 8181,13520 14426,16410 6408,2958 8563,4848 8532,7492 -41,4047 -5118,5898 -9850,5898 -6589,0 -10090,-915 -15497,-3170 l -2122,-962 -2311,13522 c 3846,1687 10956,3148 18339,3224 17306,-1 28541,-8098 28669,-20636 62,-6872 -4324,-12100 -13822,-16411 -5755,-2796 -9280,-4658 -9242,-7488 0,-2511 2983,-5195 9428,-5195 5385,-85 9283,1090 12322,2314 l 1476,696 2231,-13089 z m 42218,-1432 h -12722 c -3941,0 -6891,1078 -8622,5011 l -24450,55352 h 17288 c 0,0 2827,-7441 3467,-9075 1890,0 18684,26 21085,26 493,2114 2003,9050 2003,9050 l 15278,-1 -13326,-60363 z m -20302,38933 c 1362,-3480 6559,-16883 6559,-16883 -96,160 1351,-3497 2183,-5765 l 1114,5206 c 0,0 3151,14420 3810,17443 l -13667,-1 z m -111893,-38946 -16118,41190 -1718,-8370 C 101985,92592 92635,82139 82183,76905 l 14739,52823 17419,-21 25919,-60285 z"
           class="fil1" />
        <path
           style="fill:#f7b600"
           inkscape:connector-curvature="0"
           id="path264"
           d="M 91750,69386 H 65202 l -210,1257 c 20654,4998 34320,17082 39993,31599 L 99212,74486 c -996,-3825 -3887,-4966 -7462,-5100 z" />
      </g>
    </g>
  </g>
</svg>
