<?xml version="1.0" encoding="UTF-8" standalone="no"?>
<!-- Created with Inkscape (http://www.inkscape.org/) -->

<svg
   xmlns:dc="http://purl.org/dc/elements/1.1/"
   xmlns:cc="http://creativecommons.org/ns#"
   xmlns:rdf="http://www.w3.org/1999/02/22-rdf-syntax-ns#"
   xmlns:svg="http://www.w3.org/2000/svg"
   xmlns="http://www.w3.org/2000/svg"
   xmlns:sodipodi="http://sodipodi.sourceforge.net/DTD/sodipodi-0.dtd"
   xmlns:inkscape="http://www.inkscape.org/namespaces/inkscape"
   width="463.35999mm"
   height="351.29599mm"
   viewBox="0 0 463.35999 351.29599"
   version="1.1"
   id="svg8"
   inkscape:version="0.92.5 (2060ec1f9f, 2020-04-08)"
   sodipodi:docname="master-card.svg">
  <defs
     id="defs2" />
  <sodipodi:namedview
     id="base"
     pagecolor="#ffffff"
     bordercolor="#666666"
     borderopacity="1.0"
     inkscape:pageopacity="0.0"
     inkscape:pageshadow="2"
     inkscape:zoom="0.064955252"
     inkscape:cx="-357556.23"
     inkscape:cy="-209949.55"
     inkscape:document-units="mm"
     inkscape:current-layer="layer1"
     showgrid="false"
     inkscape:window-width="1528"
     inkscape:window-height="836"
     inkscape:window-x="72"
     inkscape:window-y="27"
     inkscape:window-maximized="1" />
  <metadata
     id="metadata5">
    <rdf:RDF>
      <cc:Work
         rdf:about="">
        <dc:format>image/svg+xml</dc:format>
        <dc:type
           rdf:resource="http://purl.org/dc/dcmitype/StillImage" />
        <dc:title></dc:title>
      </cc:Work>
    </rdf:RDF>
  </metadata>
  <g
     inkscape:label="Layer 1"
     inkscape:groupmode="layer"
     id="layer1"
     transform="translate(0,54.296)">
    <g
       id="g116"
       transform="translate(94835.105,-55724.801)">
      <path
         id="path82"
         d="m -94757.645,55985.836 c -1.296,-1.299 -2.832,-2.31 -4.614,-3.03 -1.779,-0.717 -3.729,-1.08 -5.847,-1.08 -1.122,0 -2.283,0.1 -3.492,0.291 -1.209,0.189 -2.388,0.534 -3.549,1.02 -1.158,0.489 -2.262,1.164 -3.306,2.028 -1.044,0.861 -1.956,1.95 -2.727,3.261 -1.245,-2.058 -2.934,-3.672 -5.061,-4.845 -2.13,-1.167 -4.566,-1.755 -7.305,-1.755 -0.921,0 -1.872,0.08 -2.859,0.249 -0.984,0.168 -1.962,0.456 -2.931,0.867 -0.972,0.414 -1.899,0.972 -2.784,1.68 -0.885,0.708 -1.686,1.602 -2.409,2.682 v -4.515 h -7.77 v 36.973 h 7.842 v -20.493 c 0,-1.57 0.249,-2.965 0.747,-4.189 0.498,-1.224 1.167,-2.244 2.001,-3.066 0.834,-0.828 1.809,-1.449 2.931,-1.872 1.122,-0.423 2.316,-0.639 3.585,-0.639 2.64,0 4.689,0.834 6.144,2.511 1.455,1.671 2.184,4.065 2.184,7.177 v 20.571 h 7.845 v -20.493 c 0,-1.57 0.249,-2.965 0.747,-4.189 0.498,-1.224 1.164,-2.244 1.998,-3.066 0.834,-0.828 1.812,-1.449 2.931,-1.872 1.122,-0.423 2.316,-0.639 3.588,-0.639 2.637,0 4.686,0.834 6.144,2.511 1.458,1.671 2.184,4.065 2.184,7.177 v 20.571 h 7.845 v -23.236 c 0,-2.16 -0.357,-4.14 -1.065,-5.943 -0.708,-1.8 -1.713,-3.351 -3.006,-4.65 z m 368.296,31.33 v 0.612 h 0.705 c 0.144,0 0.258,-0.02 0.333,-0.07 0.08,-0.04 0.117,-0.123 0.117,-0.234 0,-0.111 -0.04,-0.189 -0.117,-0.237 -0.08,-0.05 -0.189,-0.08 -0.333,-0.08 z m 0.723,-0.816 c 0.459,0 0.807,0.102 1.044,0.306 0.237,0.204 0.357,0.474 0.357,0.819 0,0.267 -0.08,0.489 -0.255,0.666 -0.171,0.174 -0.42,0.294 -0.744,0.345 l 1.041,1.203 h -1.125 l -0.93,-1.167 h -0.108 v 1.167 h -0.939 v -3.342 h 1.662 z m -0.219,4.401 c 0.375,0 0.729,-0.07 1.059,-0.216 0.327,-0.144 0.618,-0.339 0.861,-0.582 0.243,-0.246 0.435,-0.537 0.579,-0.867 0.138,-0.33 0.207,-0.684 0.207,-1.068 0,-0.375 -0.07,-0.729 -0.207,-1.062 -0.141,-0.333 -0.333,-0.621 -0.579,-0.864 -0.24,-0.243 -0.531,-0.438 -0.861,-0.579 -0.33,-0.141 -0.684,-0.213 -1.059,-0.213 -0.387,0 -0.744,0.07 -1.077,0.213 -0.333,0.144 -0.624,0.336 -0.87,0.579 -0.243,0.243 -0.441,0.531 -0.579,0.864 -0.138,0.333 -0.21,0.687 -0.21,1.062 0,0.381 0.07,0.738 0.21,1.068 0.138,0.33 0.333,0.621 0.579,0.867 0.246,0.243 0.537,0.438 0.87,0.582 0.333,0.144 0.69,0.216 1.077,0.216 z m 0,-6.498 c 0.537,0 1.041,0.1 1.512,0.3 0.471,0.195 0.882,0.468 1.23,0.807 0.351,0.342 0.627,0.738 0.828,1.194 0.204,0.459 0.303,0.945 0.303,1.467 0,0.516 -0.1,1.005 -0.303,1.461 -0.201,0.456 -0.474,0.861 -0.828,1.203 -0.348,0.348 -0.759,0.618 -1.23,0.816 -0.471,0.201 -0.975,0.3 -1.512,0.3 -0.549,0 -1.062,-0.1 -1.536,-0.3 -0.477,-0.198 -0.888,-0.468 -1.239,-0.816 -0.348,-0.342 -0.624,-0.744 -0.822,-1.203 -0.198,-0.456 -0.3,-0.948 -0.3,-1.461 0,-0.522 0.1,-1.005 0.3,-1.467 0.198,-0.456 0.474,-0.855 0.822,-1.194 0.351,-0.339 0.762,-0.612 1.239,-0.807 0.474,-0.201 0.987,-0.3 1.536,-0.3 z m -155.565,-21.622 c 1.026,-1.041 2.25,-1.854 3.666,-2.433 1.416,-0.579 2.946,-0.87 4.593,-0.87 1.815,0 3.495,0.288 5.052,0.87 1.506,0.558 2.811,1.341 3.918,2.334 l 3.882,-6.459 c -1.455,-1.164 -3.096,-2.118 -4.92,-2.859 -2.433,-0.99 -5.073,-1.485 -7.932,-1.485 -2.856,0 -5.499,0.495 -7.932,1.485 -2.433,0.99 -4.527,2.355 -6.291,4.092 -1.761,1.734 -3.144,3.789 -4.146,6.156 -1.005,2.367 -1.509,4.939 -1.509,7.717 0,2.781 0.501,5.352 1.509,7.722 1.002,2.367 2.385,4.416 4.146,6.156 1.761,1.737 3.858,3.099 6.291,4.092 2.433,0.99 5.076,1.485 7.932,1.485 2.859,0 5.499,-0.495 7.932,-1.485 1.824,-0.744 3.465,-1.695 4.92,-2.862 l -3.882,-6.459 c -1.107,0.993 -2.412,1.773 -3.918,2.334 -1.557,0.579 -3.24,0.87 -5.052,0.87 -1.644,0 -3.177,-0.288 -4.593,-0.87 -1.416,-0.579 -2.64,-1.389 -3.666,-2.43 -1.029,-1.041 -1.839,-2.289 -2.43,-3.741 -0.591,-1.458 -0.885,-3.057 -0.885,-4.809 0,-1.749 0.294,-3.351 0.885,-4.804 0.591,-1.458 1.404,-2.703 2.433,-3.744 z m 130.197,13.258 c -0.54,1.443 -1.302,2.691 -2.28,3.744 -0.978,1.056 -2.148,1.884 -3.51,2.487 -1.362,0.606 -2.883,0.909 -4.551,0.909 -1.752,0 -3.315,-0.315 -4.689,-0.945 -1.377,-0.63 -2.541,-1.479 -3.495,-2.547 -0.951,-1.068 -1.683,-2.322 -2.199,-3.762 -0.516,-1.443 -0.771,-2.97 -0.771,-4.593 0,-1.62 0.258,-3.15 0.771,-4.594 0.516,-1.44 1.248,-2.694 2.199,-3.762 0.954,-1.068 2.118,-1.917 3.495,-2.547 1.374,-0.633 2.94,-0.948 4.689,-0.948 1.668,0 3.189,0.303 4.551,0.909 1.365,0.603 2.535,1.434 3.51,2.49 0.978,1.056 1.737,2.301 2.28,3.744 0.54,1.441 0.807,3.007 0.807,4.708 0,1.701 -0.27,3.27 -0.807,4.71 z m 0.309,-38.224 v 19.506 c -1.29,-1.644 -2.883,-2.967 -4.788,-3.954 -1.905,-0.993 -4.182,-1.488 -6.831,-1.488 -2.601,0 -5.019,0.48 -7.257,1.446 -2.238,0.966 -4.194,2.31 -5.868,4.032 -1.674,1.722 -2.985,3.774 -3.936,6.156 -0.957,2.379 -1.431,4.984 -1.431,7.816 0,2.832 0.474,5.436 1.431,7.815 0.951,2.382 2.262,4.434 3.936,6.159 1.671,1.722 3.627,3.066 5.868,4.032 2.238,0.966 4.656,1.446 7.257,1.446 2.646,0 4.926,-0.489 6.831,-1.467 1.902,-0.975 3.498,-2.289 4.788,-3.933 v 4.437 h 8.064 v -52.003 z m -37.677,14.064 c -2.268,0 -4.311,0.411 -6.138,1.233 -1.827,0.825 -3.357,2.805 -4.59,4.581 v -4.848 h -7.326 v 36.973 h 7.404 v -20.34 c 0,-1.569 0.216,-2.974 0.657,-4.207 0.438,-1.236 1.041,-2.277 1.812,-3.126 0.771,-0.849 1.701,-1.494 2.781,-1.932 1.083,-0.438 2.265,-0.657 3.549,-0.657 0.981,0 2.034,0.117 3.165,0.351 0.579,0.117 1.116,0.261 1.62,0.432 l 2.385,-7.716 c -0.648,-0.207 -1.302,-0.381 -1.977,-0.495 -0.993,-0.168 -2.106,-0.249 -3.339,-0.249 z m -112.137,0 c -2.262,0 -4.308,0.411 -6.135,1.233 -1.827,0.825 -3.357,2.805 -4.593,4.581 v -4.848 h -7.323 v 36.973 h 7.401 v -20.34 c 0,-1.569 0.219,-2.974 0.657,-4.207 0.438,-1.236 1.041,-2.277 1.815,-3.126 0.774,-0.849 1.698,-1.494 2.781,-1.932 1.077,-0.438 2.262,-0.657 3.549,-0.657 0.981,0 2.034,0.117 3.168,0.351 0.576,0.117 1.116,0.261 1.62,0.432 l 2.385,-7.716 c -0.648,-0.207 -1.305,-0.381 -1.98,-0.495 -0.99,-0.168 -2.103,-0.249 -3.339,-0.249 z m -72.825,30.568 c -1.299,0.489 -2.58,0.732 -3.84,0.732 -0.825,0 -1.59,-0.129 -2.298,-0.387 -0.708,-0.255 -1.323,-0.66 -1.854,-1.215 -0.528,-0.552 -0.945,-1.266 -1.254,-2.142 -0.312,-0.873 -0.465,-1.932 -0.465,-3.165 v -16.096 h 12.957 v -7.332 h -12.957 v -11.193 h -8.104 v 11.193 h -7.371 v 7.332 h 7.371 v 16.249 c 0,4.917 1.162,8.535 3.49,10.866 2.331,2.328 5.592,3.492 9.786,3.492 2.343,0 4.443,-0.36 6.309,-1.08 1.233,-0.477 2.376,-1.023 3.447,-1.623 l -2.757,-6.753 c -0.78,0.417 -1.599,0.792 -2.463,1.119 z m 147.798,-6.408 c -0.54,1.443 -1.299,2.691 -2.277,3.744 -0.978,1.056 -2.148,1.884 -3.513,2.487 -1.362,0.606 -2.88,0.909 -4.554,0.909 -1.749,0 -3.312,-0.315 -4.689,-0.945 -1.377,-0.63 -2.541,-1.479 -3.492,-2.547 -0.954,-1.068 -1.686,-2.322 -2.199,-3.762 -0.516,-1.443 -0.771,-2.97 -0.771,-4.593 0,-1.62 0.258,-3.15 0.771,-4.594 0.516,-1.44 1.248,-2.694 2.199,-3.762 0.951,-1.068 2.115,-1.917 3.492,-2.547 1.377,-0.633 2.94,-0.948 4.689,-0.948 1.674,0 3.195,0.303 4.554,0.909 1.365,0.603 2.535,1.434 3.513,2.49 0.978,1.056 1.737,2.301 2.277,3.744 0.54,1.441 0.81,3.007 0.81,4.708 0,1.701 -0.27,3.27 -0.81,4.71 z m 0.306,-18.718 c -1.287,-1.644 -2.88,-2.967 -4.785,-3.954 -1.902,-0.993 -4.182,-1.488 -6.831,-1.488 -2.598,0 -5.019,0.48 -7.257,1.446 -2.238,0.966 -4.194,2.31 -5.865,4.032 -1.674,1.722 -2.988,3.774 -3.939,6.156 -0.954,2.379 -1.428,4.984 -1.428,7.816 0,2.832 0.474,5.436 1.428,7.815 0.951,2.382 2.265,4.434 3.939,6.159 1.671,1.722 3.627,3.066 5.865,4.032 2.238,0.966 4.659,1.446 7.257,1.446 2.649,0 4.929,-0.489 6.831,-1.467 1.905,-0.975 3.498,-2.289 4.785,-3.933 v 4.437 h 8.067 v -36.973 h -8.067 z m -129.729,10.846 c 0.207,-1.336 0.567,-2.569 1.083,-3.685 0.516,-1.119 1.179,-2.082 1.986,-2.895 0.813,-0.81 1.776,-1.434 2.895,-1.872 1.122,-0.438 2.4,-0.657 3.84,-0.657 2.571,0 4.671,0.798 6.291,2.394 1.623,1.596 2.649,3.834 3.087,6.715 z m 22.56,-10.903 c -1.533,-1.71 -3.372,-3.036 -5.517,-3.975 -2.151,-0.939 -4.509,-1.41 -7.08,-1.41 -2.73,0 -5.22,0.468 -7.473,1.41 -2.253,0.939 -4.188,2.262 -5.808,3.975 -1.623,1.71 -2.88,3.762 -3.783,6.156 -0.9,2.394 -1.35,5.032 -1.35,7.912 0,2.934 0.465,5.595 1.389,7.989 0.927,2.394 2.223,4.437 3.897,6.135 1.674,1.698 3.669,3.012 5.985,3.936 2.313,0.927 4.863,1.392 7.641,1.392 2.805,0 5.475,-0.387 8.01,-1.158 2.535,-0.771 4.932,-2.124 7.2,-4.053 l -4.011,-5.751 c -1.545,1.233 -3.252,2.193 -5.118,2.874 -1.866,0.684 -3.726,1.023 -5.577,1.023 -1.314,0 -2.574,-0.177 -3.783,-0.54 -1.209,-0.36 -2.304,-0.918 -3.282,-1.677 -0.978,-0.759 -1.815,-1.731 -2.511,-2.916 -0.693,-1.182 -1.17,-2.61 -1.428,-4.284 h 27.327 c 0.05,-0.462 0.09,-0.951 0.117,-1.467 0.02,-0.513 0.04,-1.029 0.04,-1.545 0,-2.88 -0.432,-5.512 -1.293,-7.894 -0.858,-2.379 -2.055,-4.425 -3.588,-6.138 z m -75.526,14.011 c -2.268,-1.761 -5.418,-2.937 -9.456,-3.529 l -3.822,-0.582 c -0.852,-0.129 -1.65,-0.276 -2.394,-0.444 -0.744,-0.168 -1.389,-0.393 -1.929,-0.675 -0.537,-0.282 -0.972,-0.645 -1.293,-1.08 -0.321,-0.438 -0.48,-0.978 -0.48,-1.623 0,-1.314 0.612,-2.376 1.833,-3.186 1.221,-0.81 2.94,-1.212 5.151,-1.212 1.158,0 2.298,0.1 3.417,0.309 1.119,0.207 2.178,0.462 3.183,0.768 1.002,0.309 1.917,0.651 2.742,1.026 0.822,0.372 1.518,0.729 2.085,1.059 l 3.471,-6.288 c -1.929,-1.236 -4.179,-2.193 -6.753,-2.877 -2.571,-0.681 -5.313,-1.023 -8.223,-1.023 -2.367,0 -4.488,0.279 -6.369,0.831 -1.875,0.552 -3.477,1.338 -4.803,2.352 -1.326,1.02 -2.343,2.259 -3.051,3.726 -0.711,1.47 -1.059,3.114 -1.059,4.941 0,2.985 1.059,5.398 3.18,7.24 2.124,1.839 5.247,3.042 9.36,3.606 l 3.861,0.504 c 2.214,0.306 3.834,0.804 4.866,1.485 1.029,0.681 1.542,1.548 1.542,2.607 0,1.386 -0.708,2.487 -2.124,3.297 -1.416,0.81 -3.51,1.215 -6.291,1.215 -1.518,0 -2.874,-0.102 -4.071,-0.309 -1.194,-0.207 -2.292,-0.48 -3.279,-0.828 -0.993,-0.348 -1.881,-0.744 -2.667,-1.194 -0.783,-0.45 -1.512,-0.933 -2.178,-1.446 l -3.744,6.057 c 1.338,1.002 2.742,1.815 4.206,2.433 1.47,0.615 2.907,1.098 4.323,1.443 1.416,0.351 2.754,0.579 4.014,0.693 1.26,0.117 2.367,0.177 3.318,0.177 2.649,0 5.025,-0.294 7.122,-0.888 2.1,-0.594 3.861,-1.422 5.289,-2.493 1.431,-1.068 2.52,-2.34 3.282,-3.819 0.762,-1.479 1.137,-3.105 1.137,-4.881 0,-3.165 -1.128,-5.628 -3.393,-7.392 z m -45.456,4.767 c -0.54,1.443 -1.299,2.691 -2.277,3.744 -0.978,1.056 -2.148,1.884 -3.51,2.487 -1.365,0.606 -2.883,0.909 -4.554,0.909 -1.749,0 -3.315,-0.315 -4.689,-0.945 -1.377,-0.63 -2.541,-1.479 -3.492,-2.547 -0.954,-1.068 -1.686,-2.322 -2.199,-3.762 -0.516,-1.443 -0.771,-2.97 -0.771,-4.593 0,-1.62 0.258,-3.15 0.771,-4.594 0.516,-1.44 1.248,-2.694 2.199,-3.762 0.951,-1.068 2.118,-1.917 3.492,-2.547 1.377,-0.633 2.94,-0.948 4.689,-0.948 1.671,0 3.189,0.303 4.554,0.909 1.362,0.603 2.532,1.434 3.51,2.49 0.978,1.056 1.737,2.301 2.277,3.744 0.54,1.441 0.81,3.007 0.81,4.708 0,1.701 -0.27,3.27 -0.81,4.71 z m 0.309,-18.718 c -1.287,-1.644 -2.883,-2.967 -4.788,-3.954 -1.905,-0.993 -4.182,-1.488 -6.831,-1.488 -2.598,0 -5.016,0.48 -7.257,1.446 -2.238,0.966 -4.194,2.31 -5.865,4.032 -1.674,1.722 -2.985,3.774 -3.939,6.156 -0.951,2.379 -1.428,4.984 -1.428,7.816 0,2.832 0.477,5.436 1.428,7.815 0.954,2.382 2.265,4.434 3.939,6.159 1.671,1.722 3.627,3.066 5.865,4.032 2.241,0.966 4.659,1.446 7.257,1.446 2.649,0 4.929,-0.489 6.831,-1.467 1.905,-0.975 3.501,-2.289 4.788,-3.933 v 4.437 h 8.067 v -36.973 h -8.067 z"
         inkscape:connector-curvature="0"
         style="clip-rule:evenodd;fill:#141515;fill-rule:evenodd;stroke-width:0.00300001;image-rendering:optimizeQuality;shape-rendering:geometricPrecision;text-rendering:geometricPrecision" />
      <path
         id="path84"
         d="m -94662.233,55809.856 c 0,-44.298 20.695,-83.733 52.915,-109.26 -23.76,-18.823 -53.773,-30.091 -86.437,-30.091 -76.959,0 -139.35,62.392 -139.35,139.348 0,76.959 62.388,139.347 139.35,139.347 32.664,0 62.677,-11.265 86.437,-30.087 -32.22,-25.524 -52.915,-64.962 -52.915,-109.26 z"
         inkscape:connector-curvature="0"
         style="clip-rule:evenodd;fill:#de2c1d;fill-rule:evenodd;stroke-width:0.00300001;image-rendering:optimizeQuality;shape-rendering:geometricPrecision;text-rendering:geometricPrecision" />
      <path
         id="path86"
         d="m -94662.233,55809.856 c 0,44.301 20.695,83.736 52.915,109.26 32.22,-25.524 52.911,-64.962 52.911,-109.26 0,-44.298 -20.694,-83.733 -52.911,-109.26 -32.22,25.524 -52.915,64.962 -52.915,109.26 z"
         inkscape:connector-curvature="0"
         style="clip-rule:evenodd;fill:#ed6100;fill-rule:evenodd;stroke-width:0.00300001;image-rendering:optimizeQuality;shape-rendering:geometricPrecision;text-rendering:geometricPrecision" />
      <path
         id="path88"
         d="m -94522.882,55670.505 c -32.664,0 -62.676,11.268 -86.433,30.091 32.22,25.524 52.911,64.962 52.911,109.26 0,44.301 -20.694,83.736 -52.911,109.26 23.757,18.822 53.769,30.087 86.433,30.087 76.959,0 139.347,-62.388 139.347,-139.347 0,-76.959 -62.388,-139.348 -139.347,-139.348 z m 149.142,219.781 v -5.916 l -1.92,5.106 h -2.118 l -1.92,-5.094 v 5.904 h -1.998 v -8.529 h 2.862 l 2.121,5.46 2.1,-5.46 h 2.868 v 8.529 h -2.001 z m -14.325,0 v -6.69 h -2.709 v -1.839 h 7.41 v 1.839 h -2.706 v 6.69 h -1.998 z"
         inkscape:connector-curvature="0"
         style="clip-rule:evenodd;fill:#f79f06;fill-rule:evenodd;stroke-width:0.00300001;image-rendering:optimizeQuality;shape-rendering:geometricPrecision;text-rendering:geometricPrecision" />
    </g>
  </g>
</svg>
